<?xml version="1.0"?>
<svg xmlns="http://www.w3.org/2000/svg" xmlns:xlink="http://www.w3.org/1999/xlink" xmlns:svgjs="http://svgjs.com/svgjs" version="1.1" width="512" height="512" x="0" y="0" viewBox="0 0 469.33365 469" style="enable-background:new 0 0 512 512" xml:space="preserve" class=""><g transform="matrix(1,0,0,1,0,25)"><path d="m213.339844 149.5c0 11.78125-9.550782 21.332031-21.335938 21.332031-11.78125 0-21.332031-9.550781-21.332031-21.332031s9.550781-21.332031 21.332031-21.332031c11.785156 0 21.335938 9.550781 21.335938 21.332031zm0 0" fill="#8f8f8f" data-original="#000000" class=""/><path d="m298.671875 149.5c0 11.78125-9.550781 21.332031-21.332031 21.332031-11.785156 0-21.335938-9.550781-21.335938-21.332031s9.550782-21.332031 21.335938-21.332031c11.78125 0 21.332031 9.550781 21.332031 21.332031zm0 0" fill="#8f8f8f" data-original="#000000" class=""/><path d="m432.570312 342.625c-39.773437 19.8125-77.78125-30.0625-92.355468-59.230469-2.636719-5.269531-9.042969-7.402343-14.3125-4.769531-5.269532 2.636719-7.40625 9.042969-4.773438 14.3125 20.023438 40.042969 55.292969 75.542969 93.085938 75.542969 9.699218-.035157 19.257812-2.355469 27.894531-6.773438 5.269531-2.632812 7.40625-9.042969 4.773437-14.3125-2.636718-5.269531-9.042968-7.402343-14.3125-4.769531zm0 0" fill="#8f8f8f" data-original="#000000" class=""/><path d="m412.632812 384.710938c-53.054687 17.789062-86.585937-33.441407-109.855468-79.980469-2.636719-5.269531-9.042969-7.40625-14.3125-4.773438-5.269532 2.636719-7.40625 9.042969-4.773438 14.3125 13.875 27.753907 47.75 95.503907 107.417969 95.503907 9.621094-.066407 19.171875-1.691407 28.273437-4.8125 5.550782-1.894532 8.535157-7.914063 6.679688-13.480469-1.855469-5.5625-7.855469-8.589844-13.429688-6.769531zm0 0" fill="#8f8f8f" data-original="#000000" class=""/><path d="m462.046875 256.707031c-2.683594-.902343-5.617187-.699219-8.148437.570313-2.53125 1.265625-4.453126 3.492187-5.339844 6.183594-5.214844 15.738281-19.035156 27.058593-35.488282 29.082031-12.898437 1.039062-23.242187-5.9375-30.1875-19.8125-12.117187-24.230469-8.679687-44.773438-4.3125-70.773438 3.324219-17.292969 5.144532-34.847656 5.433594-52.457031 0-82.472656-66.859375-149.332031-149.332031-149.332031s-149.332031 66.859375-149.332031 149.332031c.289062 17.609375 2.109375 35.164062 5.4375 52.457031 4.367187 26 7.804687 46.542969-4.3125 70.773438-6.9375 13.875-17.363282 20.710937-30.183594 19.816406-16.457031-2.023437-30.277344-13.347656-35.492188-29.085937-1.195312-3.625-4.238281-6.335938-7.980468-7.105469-3.738282-.769531-7.605469.519531-10.132813 3.382812-2.53125 2.859375-3.335937 6.855469-2.117187 10.472657 7.921875 23.933593 29.136718 40.996093 54.210937 43.605468 21.394531 1.707032 39.980469-9.957031 50.78125-31.542968 15.230469-30.457032 10.875-56.394532 6.269531-83.855469-3.132812-16.125-4.855468-32.492188-5.148437-48.917969 0-70.691406 57.308594-128 128-128s128 57.308594 128 128c-.289063 16.425781-2.011719 32.792969-5.144531 48.917969-4.605469 27.457031-8.960938 53.394531 6.269531 83.851562 10.15625 20.3125 27.148437 31.6875 47.011719 31.6875 1.25 0 2.5-.039062 3.769531-.144531 25.074219-2.605469 46.289063-19.671875 54.210937-43.605469 1.859376-5.585937-1.15625-11.625-6.742187-13.5zm0 0" fill="#8f8f8f" data-original="#000000" class=""/><path d="m148.214844 292.9375c2.632812-5.269531.496094-11.675781-4.773438-14.3125-5.269531-2.632812-11.675781-.496094-14.3125 4.773438-14.59375 29.164062-52.726562 79.019531-92.351562 59.226562-5.273438-2.632812-11.679688-.5-14.316406 4.769531-2.632813 5.269531-.496094 11.679688 4.773437 14.3125 8.636719 4.417969 18.195313 6.738281 27.894531 6.773438 37.792969 0 73.0625-35.5 93.085938-75.542969zm0 0" fill="#8f8f8f" data-original="#000000" class=""/><path d="m185.652344 314.269531c2.632812-5.269531.496094-11.675781-4.773438-14.3125-5.269531-2.632812-11.675781-.496093-14.3125 4.773438-23.269531 46.542969-56.800781 97.707031-109.851562 79.980469-5.578125-1.820313-11.578125 1.207031-13.433594 6.769531-1.855469 5.566406 1.128906 11.585937 6.679688 13.480469 9.105468 3.117187 18.652343 4.742187 28.273437 4.8125 59.65625 0 93.542969-67.75 107.417969-95.503907zm0 0" fill="#8f8f8f" data-original="#000000" class=""/><path d="m334.046875 406.042969c-29.488281-9.832031-40.707031-35.292969-51.5625-59.917969-10.238281-23.25-20.832031-47.289062-47.8125-47.289062s-37.574219 24.039062-47.8125 47.289062c-10.855469 24.625-22.074219 50.085938-51.5625 59.917969-5.59375 1.863281-8.613281 7.90625-6.75 13.5 1.863281 5.589843 7.90625 8.613281 13.5 6.75 38.449219-12.832031 52.800781-45.394531 64.332031-71.5625 9.734375-22.0625 15.835938-34.5625 28.292969-34.5625s18.558594 12.5 28.292969 34.5625c11.53125 26.167969 25.882812 58.730469 64.332031 71.5625 5.59375 1.863281 11.636719-1.160157 13.5-6.75 1.863281-5.59375-1.15625-11.636719-6.75-13.5zm0 0" fill="#8f8f8f" data-original="#000000" class=""/></g></svg>
